<svg xmlns="http://www.w3.org/2000/svg" width="500" height="500" viewBox="0 0 500 500">
  <defs>
    <style>
      .cls-1 {
        fill-rule: evenodd;
      }
    </style>
  </defs>
  <path class="cls-1" d="M403.662,211.639l-37.477,37.477,49.5,49.5L400.126,314.17,277.8,191.84l-8.485,8.486L391.641,322.655,376.792,337.5l-49.5-49.5-60.811,60.811,31.82,31.82L321.637,357.3l17.678,17.678-64.347,64.347-23.334-23.335-8.485,8.486L274.968,456.3l81.318-81.317-34.649-34.648-23.1,23.517-15.088-15.032,43.84-43.84,49.5,49.5L482.151,249.116l-8.486-8.485-49.5,49.5-41.012-41.012,28.991-28.991Zm-40.3,185.97,8.485-8.486,8.485,8.486-8.485,8.485Zm22.627-22.628,8.485-8.485,8.486,8.485-8.486,8.485Z"/>
  <path id="Shape_1_copy" data-name="Shape 1 copy" class="cls-1" d="M214.157,97.088l37.477,37.477,49.5-49.5,15.557,15.557L194.358,222.953l8.486,8.485L325.173,109.109l14.849,14.849-49.5,49.5,60.811,60.811,31.82-31.82-23.335-23.334L377.5,161.435l64.347,64.347-23.335,23.334L427,257.6l31.82-31.819L377.5,144.464l-34.648,34.649,23.516,23.1L351.336,217.3,307.5,173.456l49.5-49.5L251.634,18.6l-8.485,8.485,49.5,49.5-41.012,41.012L222.643,88.6ZM400.833,138.1l-8.485-8.485,8.485-8.485,8.486,8.485Zm-22.627-22.627-8.485-8.485,8.485-8.486,8.485,8.486Z"/>
  <path id="Shape_1_copy_2" data-name="Shape 1 copy 2" class="cls-1" d="M97.485,288.714l37.476-37.477-49.5-49.5,15.556-15.556L223.35,308.513l8.485-8.485L109.505,177.7l14.85-14.849,49.5,49.5,60.811-60.812-31.819-31.819L179.509,143.05l-17.678-17.678,64.347-64.346L249.513,84.36,258,75.875l-31.82-31.82-81.317,81.317,34.648,34.649L202.6,136.5l15.089,15.031-43.841,43.841-49.5-49.5L19,251.237l8.485,8.486,49.5-49.5,41.013,41.012L89,280.229ZM138.5,102.038l-8.485,8.485-8.486-8.485,8.486-8.485Zm-22.628,22.627-8.485,8.486L98.9,124.665l8.485-8.485Z"/>
  <path id="Shape_1_copy_3" data-name="Shape 1 copy 3" class="cls-1" d="M286.989,402.558l-37.476-37.476-49.5,49.5-15.556-15.556,122.329-122.33-8.485-8.485L175.973,390.537l-14.849-14.849,49.5-49.5L149.811,265.38,117.991,297.2l23.334,23.335-17.677,17.678L59.3,273.865,82.635,250.53l-8.485-8.485-31.82,31.82,81.318,81.317L158.3,320.534l-23.517-23.095,15.032-15.089,43.84,43.841-49.5,49.5L249.513,481.047,258,472.562l-49.5-49.5,41.013-41.012L278.5,411.044ZM100.313,361.546l8.485,8.485-8.485,8.486-8.485-8.486Zm22.627,22.628,8.486,8.485-8.486,8.485-8.485-8.485Z"/>
</svg>
