<?xml version="1.0" encoding="UTF-8"?>
<svg id="Layer_1" data-name="Layer 1" xmlns="http://www.w3.org/2000/svg" viewBox="0 0 191.01 202.48">
  <path d="M96,0c5.71,10.97,24.89,20.35,28.17,33.02,2.73,10.56-2.05,20.6-6.78,29.68-3.81-4.75,1.35-9.01,1.49-13.94-3.22-.23-7.4,0-8,3.95h-1.41c-4.99-2.46-14.82-13.36-6.52-17.39,6.51-3.16,10.82,6.86,2.66,6.5-3.17.51,2.07,6.61,7.32,5.57,5.73-1.13,9.61-7.39,7.99-13.08-3.16-11.12-13.56-11.94-21.94-5.45.31-6.57,6.09-4.77,9.91-7.46-.46-4.48-8.5-5.13-8.88-5.52-.41-.42.34-8.7-4.67-9.83-5.72.41-4.98,9.21-5.44,9.77-.41.49-8.55,1.52-8.82,5.58,3.42,2.7,9.23.32,9.92,6.46-6.51-2.24-12.81-5.41-18.56.34-10.83,10.82,5.94,28.58,13.59,13.6-10.14,1.22-6.1-9.65.97-6.46,8.25,3.71-.41,15.35-6.57,17.3l-1.29.04c-.72-3.91-4.77-4.15-8.03-3.92,1.01,4.9,4.12,8.45,2.97,13.92-2.92.59-1.57-.95-2.23-2.2-17.98-33.85,2.88-35.11,20.18-55.97"/>
  <path d="M65.66,68.71c-5.33.74-8.33-3.74-12.42-5.96-4.05,3.11-.02,6.65.33,8.66s-7.64,6.76-9.55,7.08c-9.07,1.52-12.45-10.64-4.74-10.62,6.83.01.82,6.62,3.98,6.79s6.31-4.21,6.54-7.45c1.36-19.2-31.09-11.56-21.96,8.47-4.78-2.6-4.5-7.4-2.98-11.93-4.98-2.09-8.1,5.46-9.6,5.87-1.83.5-7.46-2.27-10.38,1.73-1.31,6.21,6.2,7.47,6.86,8.5,1,1.54-.14,8.11,3.68,9.76,2.08.79,1.98-4.71,4.16-6.01,1.55-.92,3.5-1,5.27-.93.03,1.47-1.8,1.25-2.86,2.59s-2.29,3.48-2.99,4.98c-.46.98-3.12,6.27-.62,6.33,1.61.04,11.94-8.51,13.95-8.91,5.57-1.1,8.98,2.96,14.4,2.96l-4.97-6.95c10.92,1.6,23.11-17.15,31.84-5-9.57-1.98-14.95,7.47-23.87,6.98l5.94,10.52,7.98-1.58-2.98-4.95c9.22-2.69,15.79-8.69,22.88,1.48-3.29.31-5.51-3.39-9.29-3.2-2.21.11-6.3,1.82-6.67,4.22-1.3,8.49,8.45,6.12,13.98,7.44v2.97l-11.29,1.16c-5.35,4.51-2.52,10.16,3.97,10.5,3.64.19,6.08-3.1,9.3-3.68-6.42,10.9-13.78,4.65-22.88,1.97l2.98-4.95-7.48-1.9-6.44,9.36,15.35,7.51,8.52.94c-8.75,12.15-20.85-6.56-31.84-5l4.97-6.95c-5.42,0-8.83,4.06-14.4,2.96-2.01-.4-12.35-8.95-13.95-8.91-2.5.06.17,5.34.62,6.33.7,1.5,1.98,3.7,2.99,4.98,1.06,1.35,2.89,1.12,2.86,2.59-1.76.07-3.72-.02-5.27-.93-2.19-1.3-2.09-6.8-4.16-6.01-3.81,1.64-2.69,8.24-3.68,9.76-.34.52-9.76,4-6.65,9.01,1.9,3.05,9.01.91,10.16,1.22,1.8.49,2.44,5.88,8.09,5.91,3.04.01.46-2.42.46-4.55,0-3.13,1.05-5.97,4.02-7.42-2,6.82-1.71,14.5,5.28,18.11,12.92,6.66,21.57-8.79,14.16-15.16-4.52-3.88-5.99-1.07-4.59,3.93l-4.95.69c-5.86-1.34-1.97-11.76,6.27-10.39,1.52.25,8.65,4.6,9.29,5.79.86,1.59-4.33,7.3-.07,9.95,4.09-2.21,7.09-6.7,12.42-5.96-7.25,9.04-16.82,17.18-29.24,15.8-12.71-1.42-23.54-15.15-36.42-16.81l14.85-31.34L0,69.72c14.07-2.15,24.72-16.8,39.28-16.99,10.86-.15,20,7.99,26.38,15.98ZM21.18,103.24c3.97,4.73,10.25,4.5,15.16,1.33,7-4.52-3.55-9.87-7.82-9.74-3.03.09-10.42,4.75-7.35,8.41ZM49.58,94.76l-5.81-.17v12.93c8.37,3.79,9.63-10.45,5.81-12.76ZM62.38,96.69c-6.77,1.74-2.15,12.1,3.34,7.42,4.16-3.56-.48-8.15-3.34-7.42Z"/>
  <path d="M191.01,69.72l-14.85,31.34c5.15,9.81,7.51,21.43,14.84,29.87v1.47c-12.83,2.27-24.33,15.88-37.31,16.91-11.72.93-21.43-7.47-28.34-15.9,5.33-.74,8.33,3.74,12.42,5.96,4.28-2.59-.99-8.51-.05-9.96,5.03-3.19,8.29-7.92,14.75-4.72,7.56,3.75,1.98,12.38-2.83,8.79-2.74-2.05,1.41-6.97-1.9-6.03-12.36,3.49-4.85,25.17,10.8,16.78,5.76-3.09,7.24-10.82,5.61-16.79,1.88.65,3.27,3.13,3.58,4.93.38,2.25-2.72,5.46-.09,6.01,4.49.94,7.56-5.99,8.08-6.05,1.49-.19,8.19,2.14,10.17-1.05,3.16-5.1-6.36-8.44-6.68-8.97-.81-1.34.61-7.69-2.65-9.83l-2.49.71c-.24,4.57-3.47,6.72-7.95,6.27,1.84-2.19,4.51-3.93,5.72-6.7,1.02-2.33,1.46-4.68,1.23-7.22-.87-1-12.79,8.63-14.45,8.95-4.94.93-9.37-3.1-14.39-2.97l4.97,6.95c-11.23-1.02-22.47,16.74-31.84,5,9.62,2.14,14.81-7.06,23.87-6.98l-5.09-9.83-7.83.89,1.98,4.96c-9.18,3-15.55,8.41-22.88-1.48,3.29-.31,5.51,3.39,9.29,3.2,2.3-.12,6.58-2.11,7.13-4.57.06-8.4-8.55-5.56-14.45-7.08v-2.97c3.44-1.02,10.92-.12,13-2.43,4.06-4.52-.82-8.98-5.69-9.23-3.65-.18-6.08,3.1-9.3,3.68,6.63-10.6,13.8-4.97,22.88-1.97l-1.98,4.96,7.32,1.09,5.6-8.56c.75-1.9-5.04-2.11-6.95-2.97-5.69-2.55-9.48-7.19-16.91-5.48,9.37-11.75,20.63,6.03,31.84,5l-4.97,6.95c5.02.12,9.45-3.9,14.39-2.97,1.66.31,13.58,9.95,14.45,8.95.23-2.54-.21-4.89-1.23-7.22-1.21-2.77-3.89-4.51-5.72-6.7,4.47-.45,7.71,1.71,7.95,6.27l2.49.71c3.26-2.15,1.84-8.49,2.65-9.83.32-.53,9.85-3.87,6.68-8.97-1.98-3.18-8.68-.86-10.17-1.05-.52-.06-3.59-6.99-8.08-6.05-2.63.55.47,3.77.09,6.01-.31,1.8-1.7,4.28-3.58,4.93,2.84-8.82-3.1-19.9-13.35-18.89-9.63.95-13.39,15.1-3.06,18.88,3.41.14-.48-3.29,1.36-5.5,4.31-5.2,11.98,4.86,2.67,8.57-6.25,2.49-9.9-2.21-14.48-5.61,1.62-2.98,3.68-6.49.46-9.38-4.09,2.21-7.09,6.7-12.42,5.96,5.45-6.86,15.2-15.45,24.35-15.96,15.46-.87,26.91,14.06,41.32,16.98ZM148.23,94.6l-7.07.58c-2.15,4.61-1.95,7.66.25,12.21l6.83.13c-2.02-4.23-2.02-8.68,0-12.92ZM161.82,94.86c-2.22.2-9.26,3.38-9.26,6.2,2.65,5.66,10.32,7.63,15.52,3.93,6.99-4.96-1.67-10.54-6.27-10.13ZM127.03,96.67c-6.4,1.67-1.48,13.16,3.86,6.93,3.09-3.61-1.11-7.65-3.86-6.93Z"/>
  <path d="M74.7,139.37c1.15,5.47-1.97,9.02-2.97,13.92,3.26.24,7.31,0,8.03-3.92l1.29.04c4.89,3.44,10.9,6.14,9.57,13.29-1.98,10.6-19.27-.62-3.97-2.94-8.59-14.1-24.08,3.6-13.58,14.09,5.75,5.75,12.05,2.58,18.56.34-.69,6.14-6.5,3.76-9.92,6.46.27,4.06,8.41,5.09,8.82,5.58.44.53-.24,8.6,4.73,9.77,5.77-.37,4.96-9.4,5.38-9.83.38-.39,8.42-1.04,8.88-5.52-3.82-2.68-9.61-.88-9.91-7.46,13.6,13.51,32.13-8.57,16.82-17.32-7.45-4.26-13.38,3.86-10.2,4.37l3.89.94c2.25,7.44-7.91,8.46-9.36,1.33-1.37-6.71,5.39-9.34,9.32-13.16h1.41c.6,3.95,4.78,4.17,8,3.94-.36-5.1-4.7-8.62-1.97-13.92l4.98,9.42c2.19,6.2,3.83,11.03,2.87,17.85-2,14.31-23.86,22.49-28.78,35.41-.31,1.66-1.71-1.98-3.4-4.03-15.25-18.54-37.25-22.03-22.83-52.56l4.35-6.09Z"/>
  <path d="M96.49,45.83c3.3,11.16,20.45,13.85,14.93,27.86-3.14.44-1.55-3.77-3.52-6.92-2.65-4.24-9.44-7.97-11.9-12.98l-11.42,11.45c-2.04,2.07-2.21,4.5-2.98,6.98-.43,1.37.68,1.79-1.99,1.48-4.4-11.08,6.64-16.14,12.93-23.38,1.75-2.01,1.23-5.12,3.96-4.48Z"/>
  <path d="M81.57,128.42c-.21,9.03,9.37,12.89,13.45,19.9l12.88-12.98,1.54-6.92c2.18-2.92,3.17,6.51,2.8,8.23-.99,4.52-10.28,11.15-13.75,15.15-1.75,2.01-1.23,5.12-3.96,4.48-2.59-10.29-19.72-14.14-15.04-26.48.52-1.36-.34-1.7,2.09-1.39Z"/>
  <path d="M96.48,64.74c5.02,7.43,13.22,14.33,4.01,22.88-.07-2.38,1.76-4.19,1.95-6.59.45-5.55-5.66-12.49-10.93-6.86-4.87,5.2-1.29,7.78-1.47,13.45-7.26-9.45-1.6-14.7,4.39-22.25l2.05-.63Z"/>
  <path d="M100.49,114.49c8.72,7.99,1.82,15.45-3.91,22.25l-2.05.63c-5.12-7.93-12.74-13.58-4.01-22.88-1.04,5.45-3.58,9.39,1.48,13.95,3.54,3.19,5.99,2.01,8.48-1.51,3.64-5.15,1.3-7.06.02-12.43Z"/>
  <path d="M96.48,74.69c2.88,4.93,1.54,9.93-.48,14.92-2.89-3.19-3.37-9.89-1.75-13.69.6-1.41.25-1.5,2.23-1.23Z"/>
  <path d="M121.37,92.61c-3.27,6.47-8.73,4.98-14.92,4.95l9.7-5.8,5.21.85Z"/>
  <path d="M121.37,109.5l-5.21.85-9.7-5.8c6.19-.03,11.65-1.51,14.92,4.95Z"/>
  <path d="M96.48,127.42c-1.98.27-1.63.18-2.23-1.23-1.62-3.8-1.14-10.5,1.75-13.69,2.01,4.99,3.36,9.99.48,14.92Z"/>
  <path d="M84.55,96.59c.25,1.7-2.29.97-3.47.99-4.15.07-9.68.26-10.44-4.97,5.73-2.69,9,2.31,13.92,3.98Z"/>
  <path d="M84.56,104.55l-8.17,5.32-5.75-.37c1.19-6.4,8.97-4.89,13.92-4.96Z"/>
  <path d="M94.18,97.68c4.73-1.56,7.56,5.31,2.61,6.71-5.15,1.46-6.33-5.49-2.61-6.71Z"/>
</svg>