<?xml version="1.0" encoding="UTF-8"?>
<svg id="Layer_1" data-name="Layer 1" xmlns="http://www.w3.org/2000/svg" viewBox="0 0 132.31 80.63">
  <g>
    <path d="M96.27,36.38c-.84-5.1-5.74-8.45-9.23-9.38-5.7-1.52-9.85.27-14.28,3.45s-6.27,9.37-3.24,13.62c.58.81,3.29,1.62,4.31,1.63,1.19.02,3.34-2.94,2.2-3.32-.62-.21-2.64-.15-3.13-.05s-.79-.51-1.4-1.99c-.45-1.11,3.36-1.98,4.51-1.53,1.3.51,2.55,2.62,2.64,4.37.07,1.39-2.12,3.49-3.7,3.78-3.88.71-6.87-.97-8.91-3.82-1.83,2.13-4.59,3.98-7.75,4.06-3.47.08-5.29-2.64-4.99-5.56.19-1.85,3.89-3.8,5.64-3.09.59.24,1.78,2.11,1.57,2.63s-.99,1.2-1.55,1.14l-3.21-.33c-.64.38.52,3.3,1.59,3.54s3.9-.32,4.73-1.28c3.57-4.14,1.14-11-3.49-14.2-4.16-2.88-8.29-4.37-13.65-3.12-3.5.82-8.2,4.34-9.27,8.8-.63,2.64.24,6.44,1.82,7.78,1.84,1.55,5.4,1.93,8.11,1.15,1.21-.35,3.13-2.98,3.14-4.22s-1.95-3.55-2.55-3.19l-2.33,3.12c-.55.73-2.95,0-3.44-.77s-.27-3.24.39-3.89c1.29-1.27,5.19-1.47,6.97-.74s3.34,3.87,3.2,6.1c-.11,1.83-2.52,4.48-4.74,5.27-3.45,1.23-7.8.61-10.2-1.46-2.93-2.53-3.02-6.74-2.79-11.35l-12.45,10.13c-4.81,3.92-12.4,4.83-17.78,1.64-3.52-2.08-3.95-8.37-1.28-11.29,2.51-2.74,7.5-2.97,10.84-1.07,1.31.74,2.11,3.78,1.63,5.05-.64,1.69-4.56,2.53-6.01,1.09l.06-4.67c-2.14-.21-5.12.92-5.8,2.99-.53,1.62.6,5.26,2.3,6.28,9.86,5.93,20.96-6.67,27.91-12.63-5.28.05-9.36.58-11.75-2.81s-3.72-8.22-.56-11.88c3.67-4.24,10.88-4.48,14.56.22.96,1.23.49,4.48-.68,5.6-1.11,1.06-4.78.4-5.18-1.21-.24-.96,1.18-2.57,2.38-4.42-1.78-.99-5.8-1.12-7.93.06-1.65.92-2.85,4.35-2.51,6.72.3,2.09,3.75,4.5,6.23,5.42,14.2-3.65,29.93-10.87,38.88,6.32,8.26-17.44,26.01-9.03,38.63-6.54,2.04-.31,5.51-2.65,5.95-4.48.55-2.32-.11-5.8-1.6-6.92-2.36-1.78-6.81-2.02-8.35-.34.75,1.07,2.39,3.53,1.97,4.47-.63,1.43-3.92,1.83-4.96.94-1.17-1-1.7-4.37-.71-5.64,3.96-5.1,12.2-4.36,15.35,1.01,2.24,3.81.67,8.4-2.31,11.56-2.41,2.56-6.68,1.96-11.71,1.57,7.73,5.74,17.84,18.35,28.29,13.34,1.84-.88,3.15-4.17,3-5.82-.23-2.55-3.66-4.52-5.85-3.56l-.04,4.31c-.01,1.14-4.31,1.03-5.11.21-.98-1-1.32-4.19-.46-5.21s3.56-2.25,5.12-2.32c4.09-.19,7.5,1.81,8.69,5.04,1.09,2.94-.55,7.24-3.84,8.93-6.12,3.14-13.58,1.17-18.85-3.14l-10.56-8.63c.09,4.1.06,7.89-2.35,10.52-2.17,2.36-6.5,3.06-9.98,2.22-3.81-.92-5.88-4.48-5.43-7.26.7-4.3,5.47-5.98,9.12-4.27.79.37,1.81,2.2,1.87,3.08.08,1.06-2.41,3.27-3.15,2.51l-3.31-3.32c-.85-.68-2.63,2.63-2.26,3.88s2.59,3.5,3.91,3.72c2.58.41,5.67-.19,7.28-1.4,1.37-1.03,2.28-4.48,1.84-7.16Z"/>
    <path d="M65.97,0c10.82.02.23,21.52-.02,27.49-1.07-10.41-6.91-15.63-4.71-24.05C61.64,1.91,64.5,0,65.97,0Z"/>
    <path d="M85.41,12.91c2.31,4.65-9.87,6.62-14.71,11.01.8-5.38,4.81-11.52,10.16-13.01,1.21-.34,4.07,1.03,4.55,1.99Z"/>
    <path d="M60.7,23.91c-7.16-6.02-15.31-5.29-14.85-10.47.13-1.47,3.45-3.05,4.96-2.49,5.87,2.18,8.87,7.75,9.89,12.95Z"/>
  </g>
  <g>
    <path d="M96.27,44.25c-.84,5.1-5.74,8.45-9.23,9.38-5.7,1.52-9.85-.27-14.28-3.45s-6.27-9.37-3.24-13.62c.58-.81,3.29-1.62,4.31-1.63,1.19-.02,3.34,2.94,2.2,3.32-.62.21-2.64.15-3.13.05s-.79.51-1.4,1.99c-.45,1.11,3.36,1.98,4.51,1.53,1.3-.51,2.55-2.62,2.64-4.37.07-1.39-2.12-3.49-3.7-3.78-3.88-.71-6.87.97-8.91,3.82-1.83-2.13-4.59-3.98-7.75-4.06-3.47-.08-5.29,2.64-4.99,5.56.19,1.85,3.89,3.8,5.64,3.09.59-.24,1.78-2.11,1.57-2.63s-.99-1.2-1.55-1.14l-3.21.33c-.64-.38.52-3.3,1.59-3.54s3.9.32,4.73,1.28c3.57,4.14,1.14,11-3.49,14.2-4.16,2.88-8.29,4.37-13.65,3.12-3.5-.82-8.2-4.34-9.27-8.8-.63-2.64.24-6.44,1.82-7.78,1.84-1.55,5.4-1.93,8.11-1.15,1.21.35,3.13,2.98,3.14,4.22s-1.95,3.55-2.55,3.19l-2.33-3.12c-.55-.73-2.95,0-3.44.77s-.27,3.24.39,3.89c1.29,1.27,5.19,1.47,6.97.74s3.34-3.87,3.2-6.1c-.11-1.83-2.52-4.48-4.74-5.27-3.45-1.23-7.8-.61-10.2,1.46-2.93,2.53-3.02,6.74-2.79,11.35l-12.45-10.13c-4.81-3.92-12.4-4.83-17.78-1.64-3.52,2.08-3.95,8.37-1.28,11.29,2.51,2.74,7.5,2.97,10.84,1.07,1.31-.74,2.11-3.78,1.63-5.05-.64-1.69-4.56-2.53-6.01-1.09l.06,4.67c-2.14.21-5.12-.92-5.8-2.99-.53-1.62.6-5.26,2.3-6.28,9.86-5.93,20.96,6.67,27.91,12.63-5.28-.05-9.36-.58-11.75,2.81-2.43,3.45-3.72,8.22-.56,11.88,3.67,4.24,10.88,4.48,14.56-.22.96-1.23.49-4.48-.68-5.6-1.11-1.06-4.78-.4-5.18,1.21-.24.96,1.18,2.57,2.38,4.42-1.78.99-5.8,1.12-7.93-.06-1.65-.92-2.85-4.35-2.51-6.72.3-2.09,3.75-4.5,6.23-5.42,14.2,3.65,29.93,10.87,38.88-6.32,8.26,17.44,26.01,9.03,38.63,6.54,2.04.31,5.51,2.65,5.95,4.48.55,2.32-.11,5.8-1.6,6.92-2.36,1.78-6.81,2.02-8.35.34.75-1.07,2.39-3.53,1.97-4.47-.63-1.43-3.92-1.83-4.96-.94-1.17,1-1.7,4.37-.71,5.64,3.96,5.1,12.2,4.36,15.35-1.01,2.24-3.81.67-8.4-2.31-11.56-2.41-2.56-6.68-1.96-11.71-1.57,7.73-5.74,17.84-18.35,28.29-13.34,1.84.88,3.15,4.17,3,5.82-.23,2.55-3.66,4.52-5.85,3.56l-.04-4.31c-.01-1.14-4.31-1.03-5.11-.21-.98,1-1.32,4.19-.46,5.21s3.56,2.25,5.12,2.32c4.09.19,7.5-1.81,8.69-5.04,1.09-2.94-.55-7.24-3.84-8.93-6.12-3.14-13.58-1.17-18.85,3.14l-10.56,8.63c.09-4.1.06-7.89-2.35-10.52-2.17-2.36-6.5-3.06-9.98-2.22-3.81.92-5.88,4.48-5.43,7.26.7,4.3,5.47,5.98,9.12,4.27.79-.37,1.81-2.2,1.87-3.08.08-1.06-2.41-3.27-3.15-2.51l-3.31,3.32c-.85.68-2.63-2.63-2.26-3.88s2.59-3.5,3.91-3.72c2.58-.41,5.67.19,7.28,1.4,1.37,1.03,2.28,4.48,1.84,7.16Z"/>
    <path d="M65.97,80.63c10.82-.02.23-21.52-.02-27.49-1.07,10.41-6.91,15.63-4.71,24.05.4,1.52,3.26,3.44,4.73,3.43Z"/>
    <path d="M85.41,67.72c2.31-4.65-9.87-6.62-14.71-11.01.8,5.38,4.81,11.52,10.16,13.01,1.21.34,4.07-1.03,4.55-1.99Z"/>
    <path d="M60.7,56.72c-7.16,6.02-15.31,5.29-14.85,10.47.13,1.47,3.45,3.05,4.96,2.49,5.87-2.18,8.87-7.75,9.89-12.95Z"/>
  </g>
</svg>